<?xml version="1.0" encoding="UTF-8" standalone="no"?>
<!DOCTYPE svg PUBLIC "-//W3C//DTD SVG 1.1//EN" "http://www.w3.org/Graphics/SVG/1.1/DTD/svg11.dtd">
<svg width="100%" height="100%" viewBox="0 0 600 200" version="1.1" xmlns="http://www.w3.org/2000/svg" xmlns:xlink="http://www.w3.org/1999/xlink" xml:space="preserve" xmlns:serif="http://www.serif.com/" style="fill-rule:evenodd;clip-rule:evenodd;stroke-linejoin:round;stroke-miterlimit:2;">
    <g transform="matrix(0.510882,0,0,0.510882,-20.2999,-252.758)">
        <path d="M167.588,578.708L167.588,614.708C167.588,625.076 168.452,638.516 170.18,655.028C170.948,664.244 171.332,669.812 171.332,671.732L165.284,671.732C157.796,644.084 140.42,630.26 113.156,630.26C101.636,630.26 91.028,633.14 81.332,638.9C71.636,644.66 63.908,653.444 58.148,665.252C52.388,677.06 49.508,691.604 49.508,708.884C49.508,733.844 55.364,752.9 67.076,766.052C78.788,779.204 94.244,785.78 113.444,785.78C141.476,785.78 159.044,772.244 166.148,745.172L172.484,745.172L175.364,781.748L211.076,781.748L211.076,578.708L167.588,578.708ZM152.612,742.58C146.852,750.644 138.884,754.676 128.708,754.676C117.956,754.676 109.652,750.836 103.796,743.156C97.94,735.476 95.012,724.148 95.012,709.172C95.012,694.004 97.988,682.388 103.94,674.324C109.892,666.26 117.956,662.228 128.132,662.228C138.308,662.228 146.324,666.404 152.18,674.756C158.036,683.108 161.06,694.1 161.252,707.732C161.252,722.9 158.372,734.516 152.612,742.58Z" style="fill-rule:nonzero;"/>
        <path d="M254.564,766.34C268.772,779.3 287.972,785.78 312.164,785.78C336.548,785.78 355.796,779.108 369.908,765.764C384.02,752.42 391.076,732.788 391.076,706.868C391.076,690.164 387.668,676.1 380.852,664.676C374.036,653.252 364.676,644.66 352.772,638.9C340.868,633.14 327.332,630.26 312.164,630.26C288.548,630.26 269.492,636.98 254.996,650.42C240.5,663.86 233.252,683.54 233.252,709.46C233.252,734.42 240.356,753.38 254.564,766.34ZM337.364,741.572C331.508,749.732 323.108,753.812 312.164,753.812C301.22,753.812 292.868,749.732 287.108,741.572C281.348,733.412 278.468,722.132 278.468,707.732C278.468,692.372 281.396,680.756 287.252,672.884C293.108,665.012 301.412,661.076 312.164,661.076C322.916,661.076 331.268,665.012 337.22,672.884C343.172,680.756 346.148,692.372 346.148,707.732C346.148,722.132 343.22,733.412 337.364,741.572Z" style="fill-rule:nonzero;"/>
        <path d="M429.38,766.196C443.012,779.252 461.54,785.78 484.964,785.78C504.932,785.78 520.82,781.412 532.628,772.676C544.436,763.94 551.684,751.892 554.372,736.532L517.796,729.332C515.684,736.628 511.94,742.532 506.564,747.044C501.188,751.556 494.756,753.812 487.268,753.812C476.708,753.812 468.548,749.972 462.788,742.292C457.028,734.612 454.148,723.188 454.148,708.02C454.148,692.468 457.124,680.756 463.076,672.884C469.028,665.012 477.188,661.076 487.556,661.076C504.836,661.076 514.436,670.484 516.356,689.3L553.508,681.524C552.356,665.78 546.116,653.3 534.788,644.084C523.46,634.868 507.236,630.26 486.116,630.26C471.14,630.26 457.844,633.284 446.228,639.332C434.612,645.38 425.492,654.212 418.868,665.828C412.244,677.444 408.932,691.412 408.932,707.732C408.932,733.652 415.748,753.14 429.38,766.196Z" style="fill-rule:nonzero;"/>
        <path d="M680.804,781.748L734.084,781.748L664.964,693.332L728.612,634.292L680.516,634.292L647.972,666.26C636.068,677.972 626.66,693.14 619.748,711.764L614.276,711.764C618.308,689.108 620.324,666.644 620.324,644.372L620.324,578.708L576.548,578.708L576.548,781.748L620.324,781.748L620.324,734.804L636.164,720.116L680.804,781.748Z" style="fill-rule:nonzero;"/>
        <path d="M859.364,762.164L848.996,736.82C846.116,740.468 841.988,744.02 836.612,747.476C831.236,750.932 825.572,752.66 819.62,752.66C806.948,752.66 800.612,746.804 800.612,735.092L800.612,663.668L851.3,663.668L851.3,634.292L800.612,634.292L800.612,593.396L778.148,593.396L762.308,634.292L738.116,634.292L738.116,663.668L757.124,663.668L757.124,742.868C757.124,756.692 761.156,767.3 769.22,774.692C777.284,782.084 789.38,785.78 805.508,785.78C818.564,785.78 829.796,783.284 839.204,778.292C848.612,773.3 855.332,767.924 859.364,762.164Z" style="fill-rule:nonzero;"/>
        <path d="M1036.2,775.988L1028.71,748.916C1026.4,750.644 1024.1,751.508 1021.8,751.508C1019.3,751.508 1017.28,750.26 1015.75,747.764C1014.21,745.268 1013.44,741.908 1013.44,737.684L1013.44,684.404C1013.44,667.124 1007.92,653.78 996.884,644.372C985.844,634.964 969.572,630.26 948.068,630.26C927.524,630.26 910.916,634.676 898.244,643.508C885.572,652.34 878.276,663.956 876.356,678.356L915.236,685.844C919.076,669.14 928.58,660.788 943.748,660.788C961.028,660.788 969.668,669.236 969.668,686.132L969.668,695.348C960.068,694.196 950.948,693.62 942.308,693.62C920.228,693.62 902.612,697.748 889.46,706.004C876.308,714.26 869.732,726.356 869.732,742.292C869.732,755.348 874.148,765.86 882.98,773.828C891.812,781.796 904.004,785.78 919.556,785.78C934.532,785.78 946.34,782.468 954.98,775.844C963.62,769.22 969.668,758.996 973.124,745.172L979.172,745.172C978.404,750.932 978.02,754.772 978.02,756.692C978.02,766.292 980.564,773.54 985.652,778.436C990.74,783.332 998.084,785.78 1007.68,785.78C1013.44,785.78 1018.96,784.724 1024.24,782.612C1029.52,780.5 1033.51,778.292 1036.2,775.988ZM969.092,714.644C966.788,742.484 955.172,756.404 934.244,756.404C928.292,756.404 923.54,754.82 919.988,751.652C916.436,748.484 914.66,744.02 914.66,738.26C914.66,730.196 918.116,724.1 925.028,719.972C931.94,715.844 941.636,713.78 954.116,713.78C958.916,713.78 963.908,714.068 969.092,714.644Z" style="fill-rule:nonzero;"/>
        <path d="M1047.43,594.26C1047.43,607.508 1056.36,614.132 1074.21,614.132C1092.26,614.132 1101.28,607.508 1101.28,594.26C1101.28,588.308 1099.03,583.556 1094.52,580.004C1090,576.452 1083.24,574.676 1074.21,574.676C1065.19,574.676 1058.47,576.404 1054.05,579.86C1049.64,583.316 1047.43,588.116 1047.43,594.26ZM1096.1,781.748L1096.1,634.292L1052.32,634.292L1052.32,781.748L1096.1,781.748Z" style="fill-rule:nonzero;"/>
        <path d="M1204.96,776.276L1198.63,748.34C1197.28,749.3 1195.36,750.212 1192.87,751.076C1190.37,751.94 1187.88,752.372 1185.38,752.372C1176.74,752.372 1172.42,747.476 1172.42,737.684L1172.42,578.708L1128.64,578.708L1128.64,745.46C1128.64,759.668 1131.91,769.94 1138.44,776.276C1144.96,782.612 1154.95,785.78 1168.39,785.78C1176.45,785.78 1183.99,784.724 1191,782.612C1198,780.5 1202.66,778.388 1204.96,776.276Z" style="fill-rule:nonzero;"/>
    </g>
</svg>
