<?xml version="1.0" encoding="UTF-8" standalone="no"?>
<!DOCTYPE svg PUBLIC "-//W3C//DTD SVG 1.1//EN" "http://www.w3.org/Graphics/SVG/1.1/DTD/svg11.dtd">
<svg width="100%" height="100%" viewBox="0 0 500 500" version="1.1" xmlns="http://www.w3.org/2000/svg" xmlns:xlink="http://www.w3.org/1999/xlink" xml:space="preserve" xmlns:serif="http://www.serif.com/" style="fill-rule:evenodd;clip-rule:evenodd;stroke-linejoin:round;stroke-miterlimit:2;">
    <g transform="matrix(0.311216,0,0,0.506592,-0.287626,-0.237539)">
        <rect x="0.231" y="0.17" width="1607.3" height="987.394" style="fill:rgb(99,91,255);"/>
    </g>
    <g transform="matrix(1.42976,0,0,1.42976,63.6057,-725.497)">
        <path d="M167.588,578.708L167.588,614.708C167.588,625.076 168.452,638.516 170.18,655.028C170.948,664.244 171.332,669.812 171.332,671.732L165.284,671.732C157.796,644.084 140.42,630.26 113.156,630.26C101.636,630.26 91.028,633.14 81.332,638.9C71.636,644.66 63.908,653.444 58.148,665.252C52.388,677.06 49.508,691.604 49.508,708.884C49.508,733.844 55.364,752.9 67.076,766.052C78.788,779.204 94.244,785.78 113.444,785.78C141.476,785.78 159.044,772.244 166.148,745.172L172.484,745.172L175.364,781.748L211.076,781.748L211.076,578.708L167.588,578.708ZM152.612,742.58C146.852,750.644 138.884,754.676 128.708,754.676C117.956,754.676 109.652,750.836 103.796,743.156C97.94,735.476 95.012,724.148 95.012,709.172C95.012,694.004 97.988,682.388 103.94,674.324C109.892,666.26 117.956,662.228 128.132,662.228C138.308,662.228 146.324,666.404 152.18,674.756C158.036,683.108 161.06,694.1 161.252,707.732C161.252,722.9 158.372,734.516 152.612,742.58Z" style="fill:white;fill-rule:nonzero;"/>
    </g>
</svg>
